# xmcd CD database file
#
# Track frame offsets:
#	150
#	12225
#	24014
#	39085
#	58896
#	78283
#	101584
#	117218
#	133777
#	148090
#	172492
#	189299
#
# Disc length: 2740 seconds
#
# Revision: 0
# Processed by: cddbd v1.5.1PL0 Copyright (c) Steve Scherf et al.
# Submitted via: CDex 1.51
#
DISCID=9a0ab20c
DTITLE=Eric Clapton - 1995-05-04 Live in Palau Sant Jordi, Barcelona
DYEAR=1995
DGENRE=Blues
TTITLE0=How Long
TTITLE1=Kidman Blues
TTITLE2=I'm Gonna Cut Your Hair
TTITLE3=44
TTITLE4=Blues All Day Long
TTITLE5=Standin' Around Ceyin'
TTITLE6=Hoochie Coochie Man
TTITLE7=It Hurts Me Too
TTITLE8=Blues Before Sunrise
TTITLE9=Third Degree
TTITLE10=Reconsider Baby
TTITLE11=Sinner's Prayer
EXTD=YEAR: 1995
EXTT0=
EXTT1=
EXTT2=
EXTT3=
EXTT4=
EXTT5=
EXTT6=
EXTT7=
EXTT8=
EXTT9=
EXTT10=
EXTT11=
PLAYORDER=
